<?xml version="1.0" encoding="UTF-8"?>
<!DOCTYPE svg PUBLIC "-//W3C//DTD SVG 1.1//EN" "http://www.w3.org/Graphics/SVG/1.1/DTD/svg11.dtd">
<svg xmlns="http://www.w3.org/2000/svg" version="1.1" width="2000px" height="2000px" style="shape-rendering:geometricPrecision; text-rendering:geometricPrecision; image-rendering:optimizeQuality; fill-rule:evenodd; clip-rule:evenodd" xmlns:xlink="http://www.w3.org/1999/xlink">
<g><path style="opacity:1" fill="#f9f9f9" d="M -0.5,-0.5 C 666.167,-0.5 1332.83,-0.5 1999.5,-0.5C 1999.5,666.167 1999.5,1332.83 1999.5,1999.5C 1332.83,1999.5 666.167,1999.5 -0.5,1999.5C -0.5,1332.83 -0.5,666.167 -0.5,-0.5 Z"/></g>
<g><path style="opacity:1" fill="#89bb39" d="M 838.5,657.5 C 844.312,663.249 849.312,669.749 853.5,677C 752.957,770.511 683.791,883.678 646,1016.5C 641.736,1028.76 633.903,1037.93 622.5,1044C 607.286,1049.09 594.453,1045.59 584,1033.5C 581,1029.5 578,1025.5 575,1021.5C 552.198,974.104 526.198,928.771 497,885.5C 490.833,877.833 484.667,870.167 478.5,862.5C 486.795,858.438 495.295,854.771 504,851.5C 534.026,874.526 560.36,901.193 583,931.5C 587.837,939.844 593.17,947.844 599,955.5C 642.914,860.915 702.414,777.415 777.5,705C 785.128,699.04 792.462,692.707 799.5,686C 812.402,676.25 825.402,666.75 838.5,657.5 Z"/></g>
<g><path style="opacity:1" fill="#3a0997" d="M 1090.5,778.5 C 1081.9,780.471 1072.9,781.138 1063.5,780.5C 1060.35,773.734 1055.02,769.568 1047.5,768C 1031.04,766.154 1020.87,773.321 1017,789.5C 1015.04,802.18 1018.54,813.013 1027.5,822C 1037.46,827.995 1047.46,827.995 1057.5,822C 1060.07,819.933 1062.07,817.433 1063.5,814.5C 1072.82,813.335 1082.15,813.168 1091.5,814C 1084.75,834.887 1070.42,846.554 1048.5,849C 1021.83,850.758 1003.67,839.258 994,814.5C 987.031,791.078 992.531,771.245 1010.5,755C 1033.28,740.648 1055.61,741.315 1077.5,757C 1083.71,763.039 1088.04,770.206 1090.5,778.5 Z"/></g>
<g><path style="opacity:1" fill="#7e5bb9" d="M 1131.5,746.5 C 1123.5,746.5 1115.5,746.5 1107.5,746.5C 1107.5,780.5 1107.5,814.5 1107.5,848.5C 1106.5,814.337 1106.17,780.004 1106.5,745.5C 1115.02,745.174 1123.35,745.507 1131.5,746.5 Z"/></g>
<g><path style="opacity:1" fill="#380696" d="M 1131.5,746.5 C 1131.5,774.167 1131.5,801.833 1131.5,829.5C 1142.5,829.5 1153.5,829.5 1164.5,829.5C 1164.5,835.833 1164.5,842.167 1164.5,848.5C 1145.5,848.5 1126.5,848.5 1107.5,848.5C 1107.5,814.5 1107.5,780.5 1107.5,746.5C 1115.5,746.5 1123.5,746.5 1131.5,746.5 Z"/></g>
<g><path style="opacity:1" fill="#c7bfe0" d="M 1131.5,746.5 C 1132.5,773.662 1132.83,800.995 1132.5,828.5C 1143.35,828.172 1154.01,828.506 1164.5,829.5C 1153.5,829.5 1142.5,829.5 1131.5,829.5C 1131.5,801.833 1131.5,774.167 1131.5,746.5 Z"/></g>
<g><path style="opacity:1" fill="#3a0a97" d="M 1176.5,746.5 C 1197.5,746.5 1218.5,746.5 1239.5,746.5C 1239.5,753.167 1239.5,759.833 1239.5,766.5C 1226.83,766.5 1214.17,766.5 1201.5,766.5C 1201.5,773.167 1201.5,779.833 1201.5,786.5C 1212.5,786.5 1223.5,786.5 1234.5,786.5C 1234.5,793.167 1234.5,799.833 1234.5,806.5C 1223.5,806.5 1212.5,806.5 1201.5,806.5C 1201.5,813.833 1201.5,821.167 1201.5,828.5C 1214.17,828.5 1226.83,828.5 1239.5,828.5C 1239.5,835.167 1239.5,841.833 1239.5,848.5C 1218.5,848.5 1197.5,848.5 1176.5,848.5C 1176.5,814.5 1176.5,780.5 1176.5,746.5 Z"/></g>
<g><path style="opacity:1" fill="#390896" d="M 1285.5,746.5 C 1295.5,746.5 1305.5,746.5 1315.5,746.5C 1327.09,780.283 1339.09,813.95 1351.5,847.5C 1342.85,848.665 1334.19,848.832 1325.5,848C 1323.41,842.555 1321.41,837.055 1319.5,831.5C 1306.5,830.167 1293.5,830.167 1280.5,831.5C 1278.59,837.055 1276.59,842.555 1274.5,848C 1265.83,848.667 1257.17,848.667 1248.5,848C 1260.94,814.193 1273.27,780.36 1285.5,746.5 Z"/></g>
<g><path style="opacity:1" fill="#380796" d="M 1428.5,808.5 C 1428.56,809.043 1428.89,809.376 1429.5,809.5C 1430.5,788.511 1430.83,767.511 1430.5,746.5C 1438.5,746.5 1446.5,746.5 1454.5,746.5C 1454.5,780.5 1454.5,814.5 1454.5,848.5C 1446.16,848.666 1437.83,848.5 1429.5,848C 1415.94,827.951 1402.61,807.785 1389.5,787.5C 1389.22,786.711 1388.72,786.044 1388,785.5C 1387.5,806.497 1387.33,827.497 1387.5,848.5C 1379.5,848.5 1371.5,848.5 1363.5,848.5C 1363.5,814.5 1363.5,780.5 1363.5,746.5C 1371.84,746.334 1380.17,746.5 1388.5,747C 1401.98,767.471 1415.31,787.971 1428.5,808.5 Z"/></g>
<g><path style="opacity:1" fill="#7854b5" d="M 1454.5,746.5 C 1446.5,746.5 1438.5,746.5 1430.5,746.5C 1430.83,767.511 1430.5,788.511 1429.5,809.5C 1428.89,809.376 1428.56,809.043 1428.5,808.5C 1429.5,787.673 1429.83,766.673 1429.5,745.5C 1438.02,745.174 1446.35,745.507 1454.5,746.5 Z"/></g>
<g><path style="opacity:1" fill="#380796" d="M 1472.5,746.5 C 1480.5,746.5 1488.5,746.5 1496.5,746.5C 1496.17,767.34 1496.5,788.007 1497.5,808.5C 1498.42,822.244 1505.75,828.077 1519.5,826C 1526.96,824.536 1531.46,820.036 1533,812.5C 1533.5,790.503 1533.67,768.503 1533.5,746.5C 1541.5,746.5 1549.5,746.5 1557.5,746.5C 1557.5,769.167 1557.5,791.833 1557.5,814.5C 1554.21,834.953 1542.21,846.453 1521.5,849C 1498.38,852.034 1482.55,842.867 1474,821.5C 1472.58,796.531 1472.08,771.531 1472.5,746.5 Z"/></g>
<g><path style="opacity:1" fill="#6f4bb0" d="M 1472.5,746.5 C 1480.65,745.507 1488.98,745.174 1497.5,745.5C 1497.5,766.5 1497.5,787.5 1497.5,808.5C 1496.5,788.007 1496.17,767.34 1496.5,746.5C 1488.5,746.5 1480.5,746.5 1472.5,746.5 Z"/></g>
<g><path style="opacity:1" fill="#886ac0" d="M 1533.5,746.5 C 1541.65,745.507 1549.98,745.174 1558.5,745.5C 1558.83,768.673 1558.5,791.673 1557.5,814.5C 1557.5,791.833 1557.5,769.167 1557.5,746.5C 1549.5,746.5 1541.5,746.5 1533.5,746.5 Z"/></g>
<g><path style="opacity:1" fill="#390896" d="M 1575.5,746.5 C 1593.89,746.053 1612.22,746.553 1630.5,748C 1647.79,754.081 1655.29,766.248 1653,784.5C 1649.97,800.198 1640.47,809.031 1624.5,811C 1616.51,811.5 1608.51,811.666 1600.5,811.5C 1600.5,823.833 1600.5,836.167 1600.5,848.5C 1592.17,848.5 1583.83,848.5 1575.5,848.5C 1575.5,814.5 1575.5,780.5 1575.5,746.5 Z"/></g>
<g><path style="opacity:1" fill="#f8f7f9" d="M 1600.5,766.5 C 1607.17,766.334 1613.84,766.5 1620.5,767C 1628.01,771.191 1630.18,777.357 1627,785.5C 1626.05,787.57 1624.55,789.07 1622.5,790C 1615.25,791.391 1607.92,791.891 1600.5,791.5C 1600.5,783.167 1600.5,774.833 1600.5,766.5 Z"/></g>
<g><path style="opacity:1" fill="#f4f3f7" d="M 1311.5,808.5 C 1308.06,809.823 1304.23,810.49 1300,810.5C 1295.77,810.49 1291.94,809.823 1288.5,808.5C 1291.63,796.942 1295.46,785.609 1300,774.5C 1304.45,785.647 1308.28,796.981 1311.5,808.5 Z"/></g>
<g><path style="opacity:1" fill="#bfb1df" d="M 1090.5,778.5 C 1091.4,779.209 1091.74,780.209 1091.5,781.5C 1081.99,781.827 1072.65,781.494 1063.5,780.5C 1072.9,781.138 1081.9,780.471 1090.5,778.5 Z"/></g>
<g><path style="opacity:1" fill="#9c82c8" d="M 1389.5,787.5 C 1388.83,807.833 1388.17,828.167 1387.5,848.5C 1387.33,827.497 1387.5,806.497 1388,785.5C 1388.72,786.044 1389.22,786.711 1389.5,787.5 Z"/></g>
<g><path style="opacity:1" fill="#b4a1d9" d="M 1288.5,808.5 C 1291.94,809.823 1295.77,810.49 1300,810.5C 1304.23,810.49 1308.06,809.823 1311.5,808.5C 1312.4,809.209 1312.74,810.209 1312.5,811.5C 1304.17,811.5 1295.83,811.5 1287.5,811.5C 1287.26,810.209 1287.6,809.209 1288.5,808.5 Z"/></g>
<g><path style="opacity:1" fill="#3a0a97" d="M 1528.5,971.5 C 1529.04,971.44 1529.38,971.107 1529.5,970.5C 1518.85,969.501 1508.19,969.168 1497.5,969.5C 1497.5,963.5 1497.5,957.5 1497.5,951.5C 1515.5,951.5 1533.5,951.5 1551.5,951.5C 1555.3,984.87 1540.63,1004.37 1507.5,1010C 1476.27,1011.48 1457.44,996.981 1451,966.5C 1447.53,938.005 1459.03,918.505 1485.5,908C 1507.29,901.987 1526.12,906.82 1542,922.5C 1546.14,927.449 1548.64,933.116 1549.5,939.5C 1540.49,939.666 1531.49,939.5 1522.5,939C 1517.56,931.532 1510.56,928.366 1501.5,929.5C 1487.03,929.802 1478.53,937.136 1476,951.5C 1473.88,964.481 1477.72,975.314 1487.5,984C 1502.06,991.666 1514.89,989.499 1526,977.5C 1527.12,975.593 1527.96,973.593 1528.5,971.5 Z"/></g>
<g><path style="opacity:1" fill="#390796" d="M 995.5,907.5 C 1005.52,907.168 1015.52,907.501 1025.5,908.5C 1035.02,931.53 1044.52,954.53 1054,977.5C 1063.17,954.5 1072.33,931.5 1081.5,908.5C 1091.48,907.501 1101.48,907.168 1111.5,907.5C 1111.5,941.5 1111.5,975.5 1111.5,1009.5C 1103.17,1009.5 1094.83,1009.5 1086.5,1009.5C 1086.67,989.497 1086.5,969.497 1086,949.5C 1078.47,969.089 1071.14,988.756 1064,1008.5C 1057.22,1009.81 1050.39,1009.81 1043.5,1008.5C 1036,988.833 1028.5,969.167 1021,949.5C 1020.5,969.497 1020.33,989.497 1020.5,1009.5C 1012.17,1009.5 1003.83,1009.5 995.5,1009.5C 995.5,975.5 995.5,941.5 995.5,907.5 Z"/></g>
<g><path style="opacity:1" fill="#390896" d="M 1159.5,907.5 C 1169.5,907.5 1179.5,907.5 1189.5,907.5C 1201.5,941.5 1213.5,975.5 1225.5,1009.5C 1216.81,1009.83 1208.14,1009.5 1199.5,1008.5C 1197.7,1003.09 1195.7,997.756 1193.5,992.5C 1180.5,991.167 1167.5,991.167 1154.5,992.5C 1152.62,998.137 1150.95,1003.8 1149.5,1009.5C 1140.83,1009.5 1132.17,1009.5 1123.5,1009.5C 1134.94,975.297 1146.94,941.297 1159.5,907.5 Z"/></g>
<g><path style="opacity:1" fill="#380796" d="M 1302.5,969.5 C 1302.56,970.043 1302.89,970.376 1303.5,970.5C 1304.5,949.511 1304.83,928.511 1304.5,907.5C 1312.5,907.5 1320.5,907.5 1328.5,907.5C 1328.5,941.5 1328.5,975.5 1328.5,1009.5C 1320.16,1009.67 1311.83,1009.5 1303.5,1009C 1289.94,988.951 1276.61,968.785 1263.5,948.5C 1263.22,947.711 1262.72,947.044 1262,946.5C 1261.5,967.497 1261.33,988.497 1261.5,1009.5C 1253.5,1009.5 1245.5,1009.5 1237.5,1009.5C 1237.5,975.5 1237.5,941.5 1237.5,907.5C 1245.84,907.334 1254.17,907.5 1262.5,908C 1275.98,928.471 1289.31,948.971 1302.5,969.5 Z"/></g>
<g><path style="opacity:1" fill="#7854b5" d="M 1328.5,907.5 C 1320.5,907.5 1312.5,907.5 1304.5,907.5C 1304.83,928.511 1304.5,949.511 1303.5,970.5C 1302.89,970.376 1302.56,970.043 1302.5,969.5C 1303.5,948.673 1303.83,927.673 1303.5,906.5C 1312.02,906.174 1320.35,906.507 1328.5,907.5 Z"/></g>
<g><path style="opacity:1" fill="#390996" d="M 1376.5,907.5 C 1386.52,907.168 1396.52,907.501 1406.5,908.5C 1418.91,942.05 1430.91,975.717 1442.5,1009.5C 1433.81,1009.83 1425.14,1009.5 1416.5,1008.5C 1414.6,1002.96 1412.6,997.456 1410.5,992C 1397.5,991.5 1384.5,991.333 1371.5,991.5C 1369.83,997.5 1368.17,1003.5 1366.5,1009.5C 1357.83,1009.5 1349.17,1009.5 1340.5,1009.5C 1352.3,975.424 1364.3,941.424 1376.5,907.5 Z"/></g>
<g><path style="opacity:1" fill="#3a0a97" d="M 1565.5,907.5 C 1586.5,907.5 1607.5,907.5 1628.5,907.5C 1628.5,914.167 1628.5,920.833 1628.5,927.5C 1615.83,927.5 1603.17,927.5 1590.5,927.5C 1590.5,934.167 1590.5,940.833 1590.5,947.5C 1601.5,947.5 1612.5,947.5 1623.5,947.5C 1623.5,954.167 1623.5,960.833 1623.5,967.5C 1612.5,967.5 1601.5,967.5 1590.5,967.5C 1590.5,974.833 1590.5,982.167 1590.5,989.5C 1603.17,989.5 1615.83,989.5 1628.5,989.5C 1628.5,996.167 1628.5,1002.83 1628.5,1009.5C 1607.5,1009.5 1586.5,1009.5 1565.5,1009.5C 1565.5,975.5 1565.5,941.5 1565.5,907.5 Z"/></g>
<g><path style="opacity:1" fill="#390796" d="M 1644.5,907.5 C 1663.21,907.066 1681.88,907.566 1700.5,909C 1718.59,914.994 1726.09,927.494 1723,946.5C 1720.14,958.19 1712.98,965.856 1701.5,969.5C 1708.91,982.665 1716.58,995.665 1724.5,1008.5C 1715.18,1009.67 1705.85,1009.83 1696.5,1009C 1689.79,996.42 1682.96,983.92 1676,971.5C 1673.96,970.577 1671.79,970.244 1669.5,970.5C 1669.5,983.5 1669.5,996.5 1669.5,1009.5C 1661.17,1009.5 1652.83,1009.5 1644.5,1009.5C 1644.5,975.5 1644.5,941.5 1644.5,907.5 Z"/></g>
<g><path style="opacity:1" fill="#f6f4f8" d="M 1669.5,927.5 C 1676.92,927.109 1684.25,927.609 1691.5,929C 1698.57,933.41 1700.4,939.577 1697,947.5C 1695.77,949.726 1693.94,951.226 1691.5,952C 1684.25,953.391 1676.92,953.891 1669.5,953.5C 1669.5,944.833 1669.5,936.167 1669.5,927.5 Z"/></g>
<g><path style="opacity:1" fill="#f4f3f7" d="M 1186.5,971.5 C 1178.32,971.826 1170.32,971.492 1162.5,970.5C 1165.83,958.685 1169.66,947.018 1174,935.5C 1178.66,947.314 1182.83,959.314 1186.5,971.5 Z"/></g>
<g><path style="opacity:1" fill="#f1eff6" d="M 1390.5,935.5 C 1391.5,935.47 1392.16,935.97 1392.5,937C 1396.68,948.706 1400.35,960.54 1403.5,972.5C 1395.5,972.5 1387.5,972.5 1379.5,972.5C 1382.96,960.113 1386.63,947.78 1390.5,935.5 Z"/></g>
<g><path style="opacity:1" fill="#9c82c8" d="M 1263.5,948.5 C 1262.83,968.833 1262.17,989.167 1261.5,1009.5C 1261.33,988.497 1261.5,967.497 1262,946.5C 1262.72,947.044 1263.22,947.711 1263.5,948.5 Z"/></g>
<g><path style="opacity:1" fill="#886fc0" d="M 1497.5,969.5 C 1508.19,969.168 1518.85,969.501 1529.5,970.5C 1529.38,971.107 1529.04,971.44 1528.5,971.5C 1518.17,970.833 1507.83,970.167 1497.5,969.5 Z"/></g>
<g><path style="opacity:1" fill="#b29fd8" d="M 1162.5,970.5 C 1170.32,971.492 1178.32,971.826 1186.5,971.5C 1178.32,972.821 1169.99,972.821 1161.5,971.5C 1161.62,970.893 1161.96,970.56 1162.5,970.5 Z"/></g>
</svg>
