<?xml version="1.0" encoding="UTF-8"?>
<!DOCTYPE svg PUBLIC "-//W3C//DTD SVG 1.1//EN" "http://www.w3.org/Graphics/SVG/1.1/DTD/svg11.dtd">
<svg xmlns="http://www.w3.org/2000/svg" version="1.1" width="807px" height="309px" style="shape-rendering:geometricPrecision; text-rendering:geometricPrecision; image-rendering:optimizeQuality; fill-rule:evenodd; clip-rule:evenodd" xmlns:xlink="http://www.w3.org/1999/xlink">
<g><path style="opacity:1" fill="#341777" d="M 702.5,108.5 C 690.616,106.636 678.616,105.969 666.5,106.5C 666.333,125.503 666.5,144.503 667,163.5C 668.516,160.949 669.349,161.282 669.5,164.5C 673.167,164.5 676.833,164.5 680.5,164.5C 680.5,157.167 680.5,149.833 680.5,142.5C 686.167,142.5 691.833,142.5 697.5,142.5C 692.36,143.488 687.026,143.821 681.5,143.5C 681.5,150.833 681.5,158.167 681.5,165.5C 676.167,165.5 670.833,165.5 665.5,165.5C 665.5,145.5 665.5,125.5 665.5,105.5C 676.172,105.333 686.839,105.5 697.5,106C 699.491,106.374 701.158,107.207 702.5,108.5 Z"/></g>
<g><path style="opacity:1" fill="#36098e" d="M 455.5,152.5 C 461.31,153.49 467.31,153.823 473.5,153.5C 473.5,157.167 473.5,160.833 473.5,164.5C 461.586,164.821 449.753,164.488 438,163.5C 437.18,144.093 437.347,124.76 438.5,105.5C 450.081,105.821 461.581,105.488 473,104.5C 474.437,108.972 474.937,113.639 474.5,118.5C 467.167,118.5 459.833,118.5 452.5,118.5C 452.335,121.85 452.502,125.183 453,128.5C 459.123,128.315 465.289,127.981 471.5,127.5C 471.5,132.167 471.5,136.833 471.5,141.5C 465.242,141.81 459.076,141.476 453,140.5C 452.501,144.486 452.334,148.486 452.5,152.5C 453.5,152.5 454.5,152.5 455.5,152.5 Z"/></g>
<g><path style="opacity:1" fill="#360791" d="M 386.5,119.5 C 386.5,120.833 386.5,122.167 386.5,123.5C 381.812,124.468 377.145,124.468 372.5,123.5C 370.438,121.597 369.104,119.263 368.5,116.5C 363.819,115.871 359.152,116.537 354.5,118.5C 353.558,118.392 352.725,118.059 352,117.5C 351.751,118.624 351.251,119.624 350.5,120.5C 348.064,119.109 347.398,119.609 348.5,122C 346.837,124.279 345.17,126.613 343.5,129C 344.293,132.411 344.793,135.911 345,139.5C 345.852,140.571 346.685,141.571 347.5,142.5C 352.48,150.496 359.48,152.662 368.5,149C 370.175,147.291 371.842,145.624 373.5,144C 390.057,139.633 393.223,143.8 383,156.5C 372.854,165.576 361.354,167.742 348.5,163C 346.416,162.303 344.749,161.136 343.5,159.5C 338.207,152.781 334.54,145.281 332.5,137C 332.675,135.342 333.342,134.009 334.5,133C 334.167,132.667 333.833,132.333 333.5,132C 335.112,131.28 336.612,131.446 338,132.5C 338.494,130.866 338.66,129.199 338.5,127.5C 336.799,127.034 335.299,127.034 334,127.5C 333.675,125.447 334.009,123.447 335,121.5C 338.015,116.664 341.515,112.331 345.5,108.5C 356.958,102.862 368.291,103.362 379.5,110C 382.848,112.501 385.182,115.668 386.5,119.5 Z"/></g>
<g><path style="opacity:1" fill="#32157f" d="M 654.5,150.5 C 654.5,135.833 654.5,121.167 654.5,106.5C 650.5,106.5 646.5,106.5 642.5,106.5C 642.667,119.504 642.5,132.504 642,145.5C 641.623,146.942 640.79,147.942 639.5,148.5C 639.709,147.078 640.209,145.745 641,144.5C 641.5,131.504 641.667,118.504 641.5,105.5C 646.805,104.806 652.138,104.472 657.5,104.5C 657.604,118.854 657.104,133.187 656,147.5C 655.768,148.737 655.268,149.737 654.5,150.5 Z"/></g>
<g><path style="opacity:1" fill="#350691" d="M 702.5,108.5 C 710.254,113.36 713.087,120.36 711,129.5C 709.24,136.762 704.74,141.095 697.5,142.5C 691.833,142.5 686.167,142.5 680.5,142.5C 680.5,149.833 680.5,157.167 680.5,164.5C 676.833,164.5 673.167,164.5 669.5,164.5C 669.349,161.282 668.516,160.949 667,163.5C 666.5,144.503 666.333,125.503 666.5,106.5C 678.616,105.969 690.616,106.636 702.5,108.5 Z M 681.5,118.5 C 685.514,118.334 689.514,118.501 693.5,119C 696.089,122.736 696.089,126.402 693.5,130C 689.514,130.499 685.514,130.666 681.5,130.5C 681.5,126.5 681.5,122.5 681.5,118.5 Z"/></g>
<g><path style="opacity:1" fill="#85b438" d="M 174.5,163.5 C 175.258,160.513 176.091,157.513 177,154.5C 177.667,155.833 178.333,155.833 179,154.5C 180.726,150.106 182.893,145.94 185.5,142C 186.573,140.584 186.573,139.25 185.5,138C 187.627,136.949 189.293,135.449 190.5,133.5C 190.333,132.833 190.167,132.167 190,131.5C 188.59,133.884 186.59,135.55 184,136.5C 182.771,134.053 181.271,133.887 179.5,136C 180.416,136.374 181.25,136.874 182,137.5C 182.495,139.473 182.662,141.473 182.5,143.5C 178.759,143.413 176.759,141.413 176.5,137.5C 176.709,136.914 177.043,136.414 177.5,136C 175.387,134.016 174.22,131.516 174,128.5C 173,132.5 172,132.5 171,128.5C 169.829,129.893 168.329,130.727 166.5,131C 167.747,132.494 167.747,133.994 166.5,135.5C 165.001,133.198 163.668,133.531 162.5,136.5C 161.311,137.429 159.978,137.762 158.5,137.5C 181.666,105.501 209.333,78.0008 241.5,55C 244.642,55.0878 247.142,56.5878 249,59.5C 250.665,62.0783 251.665,64.7449 252,67.5C 221.463,95.8531 195.629,127.853 174.5,163.5 Z"/></g>
<g><path style="opacity:1" fill="#341280" d="M 386.5,119.5 C 391.158,125.507 389.325,127.841 381,126.5C 378.167,126.333 375.333,126.167 372.5,126C 365.298,116.665 357.465,116.165 349,124.5C 346.319,130.307 345.819,136.307 347.5,142.5C 346.685,141.571 345.852,140.571 345,139.5C 344.793,135.911 344.293,132.411 343.5,129C 345.17,126.613 346.837,124.279 348.5,122C 347.398,119.609 348.064,119.109 350.5,120.5C 351.251,119.624 351.751,118.624 352,117.5C 352.725,118.059 353.558,118.392 354.5,118.5C 359.152,116.537 363.819,115.871 368.5,116.5C 369.104,119.263 370.438,121.597 372.5,123.5C 377.145,124.468 381.812,124.468 386.5,123.5C 386.5,122.167 386.5,120.833 386.5,119.5 Z"/></g>
<g><path style="opacity:1" fill="#361d6b" d="M 412.5,151.5 C 412.167,151.5 411.833,151.5 411.5,151.5C 411.5,136.167 411.5,120.833 411.5,105.5C 406.833,105.5 402.167,105.5 397.5,105.5C 397.829,120.01 397.496,134.343 396.5,148.5C 396.5,133.833 396.5,119.167 396.5,104.5C 401.833,104.5 407.167,104.5 412.5,104.5C 412.5,120.167 412.5,135.833 412.5,151.5 Z"/></g>
<g><path style="opacity:1" fill="#330391" d="M 639.5,148.5 C 640.79,147.942 641.623,146.942 642,145.5C 642.5,132.504 642.667,119.504 642.5,106.5C 646.5,106.5 650.5,106.5 654.5,106.5C 654.5,121.167 654.5,135.833 654.5,150.5C 651.826,158.663 646.159,163.497 637.5,165C 629.04,166.765 621.373,165.099 614.5,160C 612.859,158.871 611.859,157.371 611.5,155.5C 611.279,152.608 610.446,149.941 609,147.5C 608.5,134.171 608.333,120.837 608.5,107.5C 612.452,106.728 616.452,106.395 620.5,106.5C 620.781,120.688 620.448,134.521 619.5,148C 621.488,149.366 622.488,150.866 622.5,152.5C 623.192,151.975 623.692,151.308 624,150.5C 627.933,152.478 632.1,152.978 636.5,152C 637.71,150.961 638.71,149.794 639.5,148.5 Z"/></g>
<g><path style="opacity:1" fill="#3d1989" d="M 411.5,151.5 C 411.833,151.5 412.167,151.5 412.5,151.5C 418.645,152.49 424.978,152.823 431.5,152.5C 431.5,156.833 431.5,161.167 431.5,165.5C 420.162,165.667 408.828,165.5 397.5,165C 397.781,159.619 397.447,154.119 396.5,148.5C 397.496,134.343 397.829,120.01 397.5,105.5C 402.167,105.5 406.833,105.5 411.5,105.5C 411.5,120.833 411.5,136.167 411.5,151.5 Z"/></g>
<g><path style="opacity:1" fill="#320091" d="M 411.5,151.5 C 411.45,153.59 412.45,154.923 414.5,155.5C 419.435,154.552 424.435,154.219 429.5,154.5C 429.5,157.5 429.5,160.5 429.5,163.5C 419.167,163.5 408.833,163.5 398.5,163.5C 398.5,144.5 398.5,125.5 398.5,106.5C 402.5,106.5 406.5,106.5 410.5,106.5C 410.171,121.676 410.504,136.676 411.5,151.5 Z"/></g>
<g><path style="opacity:1" fill="#84b533" d="M 174.5,163.5 C 169.496,172.841 164.496,182.174 159.5,191.5C 156.286,191.673 155.286,193.007 156.5,195.5C 155.485,198.21 153.985,200.543 152,202.5C 151.759,205.289 151.092,207.956 150,210.5C 148.644,211.38 147.144,211.714 145.5,211.5C 145.236,215.014 145.069,218.681 145,222.5C 143.989,223.337 142.822,223.67 141.5,223.5C 141.888,229.171 140.721,234.504 138,239.5C 137.798,237.744 137.298,236.078 136.5,234.5C 135.833,235.5 135.167,236.5 134.5,237.5C 134.167,235.833 133.833,234.167 133.5,232.5C 133.448,229.259 134.115,226.259 135.5,223.5C 134.167,223.5 132.833,223.5 131.5,223.5C 131.725,225.716 130.892,227.383 129,228.5C 128.28,226.888 128.446,225.388 129.5,224C 129,223.5 128.5,223 128,222.5C 127.825,218.789 127.325,215.122 126.5,211.5C 125.914,211.291 125.414,210.957 125,210.5C 124.909,206.747 124.742,203.08 124.5,199.5C 122.87,202.298 121.037,204.965 119,207.5C 118.346,208.696 117.846,208.696 117.5,207.5C 117.895,202.681 120.228,199.347 124.5,197.5C 125.341,194.631 127.007,192.464 129.5,191C 128.99,189.174 128.156,189.007 127,190.5C 126.268,188.294 126.935,186.628 129,185.5C 129.333,185.833 129.667,186.167 130,186.5C 132.288,181.691 134.121,176.691 135.5,171.5C 142.391,159.615 150.058,148.281 158.5,137.5C 159.978,137.762 161.311,137.429 162.5,136.5C 163.668,133.531 165.001,133.198 166.5,135.5C 167.747,133.994 167.747,132.494 166.5,131C 168.329,130.727 169.829,129.893 171,128.5C 172,132.5 173,132.5 174,128.5C 174.22,131.516 175.387,134.016 177.5,136C 177.043,136.414 176.709,136.914 176.5,137.5C 176.759,141.413 178.759,143.413 182.5,143.5C 182.662,141.473 182.495,139.473 182,137.5C 181.25,136.874 180.416,136.374 179.5,136C 181.271,133.887 182.771,134.053 184,136.5C 186.59,135.55 188.59,133.884 190,131.5C 190.167,132.167 190.333,132.833 190.5,133.5C 189.293,135.449 187.627,136.949 185.5,138C 186.573,139.25 186.573,140.584 185.5,142C 182.893,145.94 180.726,150.106 179,154.5C 178.333,155.833 177.667,155.833 177,154.5C 176.091,157.513 175.258,160.513 174.5,163.5 Z"/></g>
<g><path style="opacity:1" fill="#000000" d="M 453.5,142.5 C 454.833,143.167 454.833,143.167 453.5,142.5 Z"/></g>
<g><path style="opacity:1" fill="#35078f" d="M 499.5,105.5 C 505.758,105.19 511.924,105.524 518,106.5C 524.735,125.538 531.568,144.538 538.5,163.5C 533.211,165.769 527.878,165.936 522.5,164C 521.071,161.31 520.071,158.477 519.5,155.5C 511.861,153.842 504.361,154.176 497,156.5C 496.265,158.871 495.432,161.205 494.5,163.5C 489.268,165.682 483.935,166.015 478.5,164.5C 484.907,144.613 491.907,124.946 499.5,105.5 Z M 510.5,131.5 C 512.821,133.979 512.821,136.479 510.5,139C 511.424,140.811 512.257,140.645 513,138.5C 513.483,139.448 513.649,140.448 513.5,141.5C 509.774,141.823 506.107,141.489 502.5,140.5C 503.577,138.271 504.244,135.937 504.5,133.5C 506.46,132.862 508.293,132.862 510,133.5C 510.464,132.906 510.631,132.239 510.5,131.5 Z"/></g>
<g><path style="opacity:1" fill="#350f86" d="M 592.5,104.5 C 589.375,105.479 586.042,105.813 582.5,105.5C 582.168,116.853 582.501,128.186 583.5,139.5C 584.251,140.376 584.751,141.376 585,142.5C 586.667,141.5 588.333,140.5 590,139.5C 590.5,137.5 591,135.5 591.5,133.5C 590.738,126.529 590.238,119.529 590,112.5C 588.482,112.943 587.315,112.276 586.5,110.5C 589.168,109.262 591.834,109.262 594.5,110.5C 596.111,109.68 596.778,108.346 596.5,106.5C 595.209,106.737 594.209,106.404 593.5,105.5C 594.708,104.766 596.041,104.433 597.5,104.5C 597.5,124.833 597.5,145.167 597.5,165.5C 591.931,165.624 586.598,164.957 581.5,163.5C 585.24,163.241 588.906,163.574 592.5,164.5C 593.167,163.5 593.833,162.5 594.5,161.5C 595.086,161.709 595.586,162.043 596,162.5C 596.667,145.5 596.667,128.5 596,111.5C 595.333,122.167 594.667,122.167 594,111.5C 593.586,111.957 593.086,112.291 592.5,112.5C 592.167,115 591.833,117.5 591.5,120C 593.249,127.321 593.749,134.821 593,142.5C 591.286,143.925 589.953,143.592 589,141.5C 583.049,148.47 579.882,147.137 579.5,137.5C 580.117,137.611 580.617,137.944 581,138.5C 581.5,127.172 581.667,115.838 581.5,104.5C 585.167,104.5 588.833,104.5 592.5,104.5 Z"/></g>
<g><path style="opacity:1" fill="#340794" d="M 592.5,104.5 C 593.167,104.5 593.5,104.833 593.5,105.5C 594.209,106.404 595.209,106.737 596.5,106.5C 596.778,108.346 596.111,109.68 594.5,110.5C 591.834,109.262 589.168,109.262 586.5,110.5C 587.315,112.276 588.482,112.943 590,112.5C 590.238,119.529 590.738,126.529 591.5,133.5C 591,135.5 590.5,137.5 590,139.5C 588.333,140.5 586.667,141.5 585,142.5C 584.751,141.376 584.251,140.376 583.5,139.5C 582.501,128.186 582.168,116.853 582.5,105.5C 586.042,105.813 589.375,105.479 592.5,104.5 Z"/></g>
<g><path style="opacity:1" fill="#330591" d="M 579.5,137.5 C 579.882,147.137 583.049,148.47 589,141.5C 589.953,143.592 591.286,143.925 593,142.5C 593.749,134.821 593.249,127.321 591.5,120C 591.833,117.5 592.167,115 592.5,112.5C 593.086,112.291 593.586,111.957 594,111.5C 594.667,122.167 595.333,122.167 596,111.5C 596.667,128.5 596.667,145.5 596,162.5C 595.586,162.043 595.086,161.709 594.5,161.5C 593.833,162.5 593.167,163.5 592.5,164.5C 588.906,163.574 585.24,163.241 581.5,163.5C 574.677,153.195 567.844,142.862 561,132.5C 560.517,133.448 560.351,134.448 560.5,135.5C 559.833,135.5 559.5,135.833 559.5,136.5C 558.506,145.652 558.173,154.985 558.5,164.5C 553.833,164.5 549.167,164.5 544.5,164.5C 544.83,146.326 544.497,128.326 543.5,110.5C 543.201,108.396 543.534,106.396 544.5,104.5C 549.447,105.283 554.447,105.783 559.5,106C 566.812,116.134 573.479,126.634 579.5,137.5 Z"/></g>
<g><path style="opacity:1" fill="#170622" d="M 560.5,135.5 C 562.332,136.14 562.665,137.14 561.5,138.5C 560.614,137.675 560.281,136.675 560.5,135.5 Z"/></g>
<g><path style="opacity:1" fill="#34127e" d="M 639.5,148.5 C 638.71,149.794 637.71,150.961 636.5,152C 632.1,152.978 627.933,152.478 624,150.5C 623.692,151.308 623.192,151.975 622.5,152.5C 622.488,150.866 621.488,149.366 619.5,148C 620.448,134.521 620.781,120.688 620.5,106.5C 616.452,106.395 612.452,106.728 608.5,107.5C 608.333,120.837 608.5,134.171 609,147.5C 610.446,149.941 611.279,152.608 611.5,155.5C 608.232,152.285 606.732,148.285 607,143.5C 606.5,130.504 606.333,117.504 606.5,104.5C 611.666,104.75 617,104.75 622.5,104.5C 622.333,118.171 622.5,131.837 623,145.5C 623.785,147.286 624.951,148.786 626.5,150C 631.091,150.942 635.424,150.442 639.5,148.5 Z"/></g>
<g><path style="opacity:1" fill="#2e1574" d="M 543.5,110.5 C 544.497,128.326 544.83,146.326 544.5,164.5C 549.167,164.5 553.833,164.5 558.5,164.5C 558.173,154.985 558.506,145.652 559.5,136.5C 559.5,146.167 559.5,155.833 559.5,165.5C 554.167,165.5 548.833,165.5 543.5,165.5C 543.5,147.167 543.5,128.833 543.5,110.5 Z"/></g>
<g><path style="opacity:1" fill="#00007d" d="M 453.5,150.5 C 454.833,151.167 454.833,151.167 453.5,150.5 Z"/></g>
<g><path style="opacity:1" fill="#320d80" d="M 345.5,108.5 C 341.515,112.331 338.015,116.664 335,121.5C 334.009,123.447 333.675,125.447 334,127.5C 335.299,127.034 336.799,127.034 338.5,127.5C 338.66,129.199 338.494,130.866 338,132.5C 336.612,131.446 335.112,131.28 333.5,132C 333.833,132.333 334.167,132.667 334.5,133C 333.342,134.009 332.675,135.342 332.5,137C 334.54,145.281 338.207,152.781 343.5,159.5C 334.746,153.664 330.412,145.331 330.5,134.5C 330.591,122.797 335.591,114.131 345.5,108.5 Z"/></g>
<g><path style="opacity:1" fill="#000000" d="M 432.5,157.5 C 434.476,158.427 434.809,159.76 433.5,161.5C 432.571,160.311 432.238,158.978 432.5,157.5 Z"/></g>
<g><path style="opacity:1" fill="#0d036a" d="M 475.5,157.5 C 477.088,158.635 477.421,159.969 476.5,161.5C 475.571,160.311 475.238,158.978 475.5,157.5 Z"/></g>
<g><path style="opacity:1" fill="#371b6f" d="M 438.5,105.5 C 437.347,124.76 437.18,144.093 438,163.5C 449.753,164.488 461.586,164.821 473.5,164.5C 473.5,160.833 473.5,157.167 473.5,153.5C 467.31,153.823 461.31,153.49 455.5,152.5C 461.833,152.5 468.167,152.5 474.5,152.5C 474.5,156.833 474.5,161.167 474.5,165.5C 461.833,165.5 449.167,165.5 436.5,165.5C 436.333,145.497 436.5,125.497 437,105.5C 437.69,104.262 438.19,104.262 438.5,105.5 Z"/></g>
<g><path style="opacity:1" fill="#84b436" d="M 135.5,171.5 C 134.121,176.691 132.288,181.691 130,186.5C 129.667,186.167 129.333,185.833 129,185.5C 126.935,186.628 126.268,188.294 127,190.5C 128.156,189.007 128.99,189.174 129.5,191C 127.007,192.464 125.341,194.631 124.5,197.5C 120.228,199.347 117.895,202.681 117.5,207.5C 117.846,208.696 118.346,208.696 119,207.5C 121.037,204.965 122.87,202.298 124.5,199.5C 124.742,203.08 124.909,206.747 125,210.5C 125.414,210.957 125.914,211.291 126.5,211.5C 127.325,215.122 127.825,218.789 128,222.5C 128.5,223 129,223.5 129.5,224C 128.446,225.388 128.28,226.888 129,228.5C 130.892,227.383 131.725,225.716 131.5,223.5C 132.833,223.5 134.167,223.5 135.5,223.5C 134.115,226.259 133.448,229.259 133.5,232.5C 133.833,234.167 134.167,235.833 134.5,237.5C 135.167,236.5 135.833,235.5 136.5,234.5C 137.298,236.078 137.798,237.744 138,239.5C 140.721,234.504 141.888,229.171 141.5,223.5C 142.822,223.67 143.989,223.337 145,222.5C 145.069,218.681 145.236,215.014 145.5,211.5C 147.144,211.714 148.644,211.38 150,210.5C 151.092,207.956 151.759,205.289 152,202.5C 153.985,200.543 155.485,198.21 156.5,195.5C 155.286,193.007 156.286,191.673 159.5,191.5C 149.195,214.911 140.362,238.911 133,263.5C 127.867,274.478 119.367,279.312 107.5,278C 101.1,274.934 95.933,270.434 92,264.5C 76.7679,231.674 58.2679,201.008 36.5,172.5C 40.9972,169.502 45.8306,167.168 51,165.5C 73.5006,181.332 91.8339,200.999 106,224.5C 114.326,205.835 124.159,188.169 135.5,171.5 Z"/></g>
<g><path style="opacity:1" fill="#360890" d="M 675.5,210.5 C 675.5,213.833 675.5,217.167 675.5,220.5C 681.833,220.5 688.167,220.5 694.5,220.5C 694.5,224.833 694.5,229.167 694.5,233.5C 688.167,233.5 681.833,233.5 675.5,233.5C 675.5,237.167 675.5,240.833 675.5,244.5C 682.313,245.491 689.313,245.825 696.5,245.5C 696.665,248.518 696.498,251.518 696,254.5C 695.25,255.126 694.416,255.626 693.5,256C 682.505,256.5 671.505,256.667 660.5,256.5C 660.5,237.167 660.5,217.833 660.5,198.5C 672.5,198.5 684.5,198.5 696.5,198.5C 696.5,202.167 696.5,205.833 696.5,209.5C 689.313,209.175 682.313,209.509 675.5,210.5 Z"/></g>
<g><path style="opacity:1" fill="#33058e" d="M 352.5,202.5 C 357.601,213.61 362.434,224.943 367,236.5C 368.009,234.975 368.509,233.308 368.5,231.5C 372.833,221.5 377.167,211.5 381.5,201.5C 382.478,201.189 383.145,200.522 383.5,199.5C 388.792,198.505 394.125,198.172 399.5,198.5C 399.5,217.833 399.5,237.167 399.5,256.5C 394.5,256.5 389.5,256.5 384.5,256.5C 384.666,247.161 384.5,237.827 384,228.5C 380.47,237.423 377.137,246.423 374,255.5C 369.333,258.167 364.667,258.167 360,255.5C 357.629,248.2 354.796,241.2 351.5,234.5C 351.737,233.209 351.404,232.209 350.5,231.5C 349.491,224.605 348.824,224.272 348.5,230.5C 347.507,238.984 347.174,247.651 347.5,256.5C 342.833,256.5 338.167,256.5 333.5,256.5C 333.5,237.167 333.5,217.833 333.5,198.5C 339.206,198.171 344.872,198.505 350.5,199.5C 350.942,200.739 351.609,201.739 352.5,202.5 Z"/></g>
<g><path style="opacity:1" fill="#330592" d="M 509.5,255.5 C 505.352,250.552 501.686,245.218 498.5,239.5C 498.65,236.541 497.65,234.041 495.5,232C 497.169,230.331 499.169,229.498 501.5,229.5C 501.915,231.747 502.582,233.914 503.5,236C 503.415,237.107 503.081,238.107 502.5,239C 503.416,239.374 504.25,239.874 505,240.5C 505.176,237.118 505.676,233.785 506.5,230.5C 507.167,231.833 507.833,233.167 508.5,234.5C 510.229,232.149 510.896,229.482 510.5,226.5C 510.334,217.494 510.5,208.494 511,199.5C 515.401,198.533 519.901,198.2 524.5,198.5C 524.667,217.503 524.5,236.503 524,255.5C 519.199,256.755 514.365,256.755 509.5,255.5 Z"/></g>
<g><path style="opacity:1" fill="#32186a" d="M 352.5,202.5 C 351.609,201.739 350.942,200.739 350.5,199.5C 344.872,198.505 339.206,198.171 333.5,198.5C 333.5,217.833 333.5,237.167 333.5,256.5C 338.167,256.5 342.833,256.5 347.5,256.5C 347.174,247.651 347.507,238.984 348.5,230.5C 348.5,239.5 348.5,248.5 348.5,257.5C 343.167,257.5 337.833,257.5 332.5,257.5C 332.5,237.5 332.5,217.5 332.5,197.5C 338.868,197.17 345.202,197.504 351.5,198.5C 352.246,199.736 352.579,201.07 352.5,202.5 Z"/></g>
<g><path style="opacity:1" fill="#14074d" d="M 677.5,216.5 C 678.776,217.386 678.776,218.386 677.5,219.5C 676.438,218.575 676.438,217.575 677.5,216.5 Z"/></g>
<g><path style="opacity:1" fill="#000000" d="M 684.5,219.5 C 686.288,218.378 688.288,218.211 690.5,219C 688.527,219.495 686.527,219.662 684.5,219.5 Z"/></g>
<g><path style="opacity:1" fill="#331878" d="M 509.5,255.5 C 514.365,256.755 519.199,256.755 524,255.5C 524.5,236.503 524.667,217.503 524.5,198.5C 519.901,198.2 515.401,198.533 511,199.5C 510.5,208.494 510.334,217.494 510.5,226.5C 510.167,226.5 509.833,226.5 509.5,226.5C 509.5,216.5 509.5,206.5 509.5,196.5C 514.854,196.569 520.187,196.902 525.5,197.5C 525.5,217.5 525.5,237.5 525.5,257.5C 520.489,257.666 515.489,257.499 510.5,257C 509.944,256.617 509.611,256.117 509.5,255.5 Z"/></g>
<g><path style="opacity:1" fill="#320c83" d="M 487.5,199.5 C 495.195,209.717 502.362,220.383 509,231.5C 509.494,229.866 509.66,228.199 509.5,226.5C 509.833,226.5 510.167,226.5 510.5,226.5C 510.896,229.482 510.229,232.149 508.5,234.5C 507.833,233.167 507.167,231.833 506.5,230.5C 505.676,233.785 505.176,237.118 505,240.5C 504.25,239.874 503.416,239.374 502.5,239C 503.081,238.107 503.415,237.107 503.5,236C 502.582,233.914 501.915,231.747 501.5,229.5C 499.169,229.498 497.169,230.331 495.5,232C 497.65,234.041 498.65,236.541 498.5,239.5C 495.987,235.142 492.987,231.142 489.5,227.5C 489.291,226.078 488.791,224.745 488,223.5C 487.514,234.838 487.014,246.171 486.5,257.5C 481.5,257.5 476.5,257.5 471.5,257.5C 471.5,237.5 471.5,217.5 471.5,197.5C 477.271,196.887 482.604,197.554 487.5,199.5 Z"/></g>
<g><path style="opacity:1" fill="#340493" d="M 487.5,199.5 C 488.901,203.534 490.234,207.534 491.5,211.5C 496.029,211.937 497.529,214.271 496,218.5C 496.908,220.439 498.408,221.439 500.5,221.5C 500.5,223.167 500.5,224.833 500.5,226.5C 499.167,226.5 497.833,226.5 496.5,226.5C 496.649,225.448 496.483,224.448 496,223.5C 494.915,224.293 493.748,224.96 492.5,225.5C 488.382,218.893 484.715,219.226 481.5,226.5C 481.667,226.833 481.833,227.167 482,227.5C 483.11,225.963 484.61,225.297 486.5,225.5C 486.466,235.845 486.133,246.179 485.5,256.5C 481.167,256.5 476.833,256.5 472.5,256.5C 472.5,237.167 472.5,217.833 472.5,198.5C 477.595,198.221 482.595,198.555 487.5,199.5 Z"/></g>
<g><path style="opacity:1" fill="#34078e" d="M 551.5,197.5 C 557.758,197.19 563.924,197.524 570,198.5C 577.412,217.986 584.246,237.652 590.5,257.5C 585.101,257.691 579.767,257.191 574.5,256C 573.407,253.557 572.407,251.057 571.5,248.5C 564.167,247.167 556.833,247.167 549.5,248.5C 548.358,251.399 547.692,254.399 547.5,257.5C 541.794,257.829 536.128,257.495 530.5,256.5C 537.704,236.886 544.704,217.219 551.5,197.5 Z M 560.5,226.5 C 560.784,228.415 560.451,230.081 559.5,231.5C 558.391,231.443 557.391,231.11 556.5,230.5C 556.351,229.448 556.517,228.448 557,227.5C 557.654,228.696 558.154,228.696 558.5,227.5C 558.167,226.833 557.833,226.167 557.5,225.5C 558.167,225.167 558.833,224.833 559.5,224.5C 558.572,223.232 558.405,221.899 559,220.5C 560.128,222.345 560.628,224.345 560.5,226.5 Z M 561.5,215.5 C 561.5,216.167 561.5,216.833 561.5,217.5C 560.767,219.495 560.1,219.661 559.5,218C 559.639,216.699 560.305,215.866 561.5,215.5 Z"/></g>
<g><path style="opacity:1" fill="#310f72" d="M 561.5,215.5 C 560.305,215.866 559.639,216.699 559.5,218C 560.1,219.661 560.767,219.495 561.5,217.5C 562.338,217.842 562.672,218.508 562.5,219.5C 563.404,220.209 563.737,221.209 563.5,222.5C 562.167,223.167 562.167,223.833 563.5,224.5C 563.027,225.906 562.027,226.573 560.5,226.5C 560.628,224.345 560.128,222.345 559,220.5C 558.405,221.899 558.572,223.232 559.5,224.5C 558.833,224.833 558.167,225.167 557.5,225.5C 557.833,226.167 558.167,226.833 558.5,227.5C 558.154,228.696 557.654,228.696 557,227.5C 556.517,228.448 556.351,229.448 556.5,230.5C 557.391,231.11 558.391,231.443 559.5,231.5C 559.5,232.167 559.5,232.833 559.5,233.5C 558.391,233.557 557.391,233.89 556.5,234.5C 556.158,233.662 555.492,233.328 554.5,233.5C 552.778,230.392 553.278,227.725 556,225.5C 557.138,221.879 557.972,218.212 558.5,214.5C 559.791,214.263 560.791,214.596 561.5,215.5 Z"/></g>
<g><path style="opacity:1" fill="#31186c" d="M 384.5,256.5 C 389.5,256.5 394.5,256.5 399.5,256.5C 399.5,237.167 399.5,217.833 399.5,198.5C 394.125,198.172 388.792,198.505 383.5,199.5C 383.145,200.522 382.478,201.189 381.5,201.5C 381.539,200.417 381.873,199.417 382.5,198.5C 388.463,197.504 394.463,197.171 400.5,197.5C 400.5,217.5 400.5,237.5 400.5,257.5C 394.974,257.821 389.64,257.488 384.5,256.5 Z"/></g>
<g><path style="opacity:1" fill="#140752" d="M 489.5,227.5 C 489.631,228.239 489.464,228.906 489,229.5C 488.308,228.563 488.475,227.897 489.5,227.5 Z"/></g>
<g><path style="opacity:1" fill="#150633" d="M 368.5,231.5 C 366.647,232.614 366.147,231.948 367,229.5C 367.717,230.044 368.217,230.711 368.5,231.5 Z"/></g>
<g><path style="opacity:1" fill="#00007d" d="M 350.5,231.5 C 350.631,232.239 350.464,232.906 350,233.5C 349.308,232.563 349.475,231.897 350.5,231.5 Z"/></g>
<g><path style="opacity:1" fill="#320889" d="M 705.5,197.5 C 716.881,197.144 728.215,197.644 739.5,199C 750.095,203.358 753.928,211.191 751,222.5C 748.685,227.453 745.685,231.786 742,235.5C 741.577,234.044 740.744,233.544 739.5,234C 744.085,241.169 748.419,248.502 752.5,256C 746.842,257.592 741.175,257.759 735.5,256.5C 731.826,251.156 728.66,245.49 726,239.5C 724.959,237.415 723.459,235.748 721.5,234.5C 720.187,242.058 720.187,249.558 721.5,257C 716.177,257.499 710.844,257.666 705.5,257.5C 705.5,237.5 705.5,217.5 705.5,197.5 Z M 736.5,217.5 C 735.833,217.5 735.5,217.833 735.5,218.5C 735.863,220.911 734.863,222.411 732.5,223C 728.514,223.499 724.514,223.666 720.5,223.5C 720.5,219.167 720.5,214.833 720.5,210.5C 724.182,210.335 727.848,210.501 731.5,211C 734.493,212.159 736.16,214.325 736.5,217.5 Z"/></g>
<g><path style="opacity:1" fill="#350394" d="M 735.5,218.5 C 735.5,217.833 735.833,217.5 736.5,217.5C 737.335,212.819 735.335,209.486 730.5,207.5C 726.889,208.262 723.222,208.762 719.5,209C 718.716,214.782 718.05,220.616 717.5,226.5C 720.167,226.5 722.833,226.5 725.5,226.5C 725.553,229.061 724.553,231.061 722.5,232.5C 721.784,230.518 720.617,228.851 719,227.5C 718.667,236.167 718.333,244.833 718,253.5C 716.644,254.38 715.144,254.714 713.5,254.5C 713.167,234.5 712.833,234.5 712.5,254.5C 710.833,254.5 709.167,254.5 707.5,254.5C 707.705,235.818 707.372,217.152 706.5,198.5C 714.507,198.334 722.507,198.5 730.5,199C 731.662,199.827 732.829,200.66 734,201.5C 734.772,201.355 735.439,201.022 736,200.5C 738.999,202.066 742.165,203.232 745.5,204C 746.451,204.718 746.617,205.551 746,206.5C 739.688,210.551 740.188,213.051 747.5,214C 746.663,215.011 746.33,216.178 746.5,217.5C 743.287,215.669 741.287,216.669 740.5,220.5C 741.333,220.833 742.167,221.167 743,221.5C 744.8,220.622 746.633,219.955 748.5,219.5C 748.442,222.664 747.776,225.664 746.5,228.5C 743.64,228.084 741.474,229.084 740,231.5C 737.492,229.665 735.325,227.498 733.5,225C 736.302,223.269 736.969,221.102 735.5,218.5 Z M 736.5,217.5 C 735.833,217.5 735.5,217.833 735.5,218.5C 735.863,220.911 734.863,222.411 732.5,223C 728.514,223.499 724.514,223.666 720.5,223.5C 720.5,219.167 720.5,214.833 720.5,210.5C 724.182,210.335 727.848,210.501 731.5,211C 734.493,212.159 736.16,214.325 736.5,217.5 Z"/></g>
<g><path style="opacity:1" fill="#150633" d="M 721.5,212.5 C 722.251,211.427 723.251,211.26 724.5,212C 723.648,213.728 722.648,213.895 721.5,212.5 Z"/></g>
<g><path style="opacity:1" fill="#000000" d="M 351.5,234.5 C 350.833,235.167 350.833,235.167 351.5,234.5 Z"/></g>
<g><path style="opacity:1" fill="#000000" d="M 676.5,235.5 C 676.897,234.475 677.563,234.308 678.5,235C 677.906,235.464 677.239,235.631 676.5,235.5 Z"/></g>
<g><path style="opacity:1" fill="#350691" d="M 463.5,250.5 C 463.357,252.262 463.691,253.929 464.5,255.5C 463,255.833 461.5,256.167 460,256.5C 456.834,255.695 453.667,255.028 450.5,254.5C 450.756,252.063 451.423,249.729 452.5,247.5C 451.47,247.446 450.303,247.112 449,246.5C 449.053,244.064 448.887,241.731 448.5,239.5C 447.548,241.045 447.215,242.712 447.5,244.5C 441.86,244.306 436.193,244.14 430.5,244C 428.642,245.982 426.309,247.148 423.5,247.5C 422.702,249.078 422.202,250.744 422,252.5C 420.076,250.178 418.743,247.511 418,244.5C 417.308,245.025 416.808,245.692 416.5,246.5C 417.256,249.977 418.256,253.31 419.5,256.5C 415.833,256.5 412.167,256.5 408.5,256.5C 408.833,253.833 409.167,251.167 409.5,248.5C 414.969,231.426 420.636,214.426 426.5,197.5C 432.868,197.17 439.202,197.504 445.5,198.5C 452.103,215.644 458.103,232.977 463.5,250.5 Z M 433.5,225.5 C 438.005,226.51 439.338,229.176 437.5,233.5C 436.07,233.421 434.736,233.754 433.5,234.5C 432.824,233.398 432.158,232.398 431.5,231.5C 431.595,229.214 432.262,227.214 433.5,225.5 Z"/></g>
<g><path style="opacity:1" fill="#31166e" d="M 647.5,247.5 C 647.34,245.801 647.506,244.134 648,242.5C 649.585,241.624 650.585,240.291 651,238.5C 652.16,233.566 652.66,228.566 652.5,223.5C 642.167,223.5 631.833,223.5 621.5,223.5C 621.335,226.518 621.502,229.518 622,232.5C 624.939,233.128 627.772,233.795 630.5,234.5C 627.167,234.5 623.833,234.5 620.5,234.5C 620.5,230.5 620.5,226.5 620.5,222.5C 631.5,222.5 642.5,222.5 653.5,222.5C 654.762,231.779 652.762,240.113 647.5,247.5 Z"/></g>
<g><path style="opacity:1" fill="#12055c" d="M 676.5,241.5 C 677.289,241.783 677.956,242.283 678.5,243C 677.184,243.528 676.517,243.028 676.5,241.5 Z"/></g>
<g><path style="opacity:1" fill="#000000" d="M 694.5,243.5 C 694.897,242.475 695.563,242.308 696.5,243C 695.906,243.464 695.239,243.631 694.5,243.5 Z"/></g>
<g><path style="opacity:1" fill="#320d81" d="M 463.5,250.5 C 464.481,252.396 465.481,254.396 466.5,256.5C 460.843,257.557 455.177,257.557 449.5,256.5C 448.985,248.035 444.485,245.035 436,247.5C 432.5,247.667 429,247.833 425.5,248C 424.58,250.835 423.58,253.668 422.5,256.5C 417.208,257.495 411.875,257.828 406.5,257.5C 406.928,254.215 407.928,251.215 409.5,248.5C 409.167,251.167 408.833,253.833 408.5,256.5C 412.167,256.5 415.833,256.5 419.5,256.5C 418.256,253.31 417.256,249.977 416.5,246.5C 416.808,245.692 417.308,245.025 418,244.5C 418.743,247.511 420.076,250.178 422,252.5C 422.202,250.744 422.702,249.078 423.5,247.5C 426.309,247.148 428.642,245.982 430.5,244C 436.193,244.14 441.86,244.306 447.5,244.5C 447.215,242.712 447.548,241.045 448.5,239.5C 448.887,241.731 449.053,244.064 449,246.5C 450.303,247.112 451.47,247.446 452.5,247.5C 451.423,249.729 450.756,252.063 450.5,254.5C 453.667,255.028 456.834,255.695 460,256.5C 461.5,256.167 463,255.833 464.5,255.5C 463.691,253.929 463.357,252.262 463.5,250.5 Z"/></g>
<g><path style="opacity:1" fill="#35088d" d="M 630.5,234.5 C 627.772,233.795 624.939,233.128 622,232.5C 621.502,229.518 621.335,226.518 621.5,223.5C 631.833,223.5 642.167,223.5 652.5,223.5C 652.66,228.566 652.16,233.566 651,238.5C 650.585,240.291 649.585,241.624 648,242.5C 647.506,244.134 647.34,245.801 647.5,247.5C 636.869,257.46 624.536,259.96 610.5,255C 593.974,243.709 589.807,228.875 598,210.5C 606.244,198.968 617.41,194.468 631.5,197C 641.926,199.929 648.926,206.429 652.5,216.5C 643.973,218.767 636.307,217.267 629.5,212C 614.958,209.688 608.458,215.855 610,230.5C 613.243,242.266 620.743,246.1 632.5,242C 640.934,236.778 640.268,234.278 630.5,234.5 Z"/></g>
<g><path style="opacity:1" fill="#000000" d="M 635.5,236.5 C 636.833,237.167 636.833,237.167 635.5,236.5 Z"/></g>
<g><path style="opacity:1" fill="#370594" d="M 605.5,213.5 C 607.818,213.818 609.152,215.152 609.5,217.5C 608.764,222.803 608.264,228.137 608,233.5C 606.945,237.428 605.445,241.094 603.5,244.5C 602.325,244.719 601.325,244.386 600.5,243.5C 599.79,240.327 598.623,237.327 597,234.5C 596.82,230.571 596.653,226.738 596.5,223C 596.613,221.72 597.28,220.887 598.5,220.5C 599.833,221.833 601.167,221.833 602.5,220.5C 603.7,218.229 604.7,215.896 605.5,213.5 Z"/></g>
<g><path style="opacity:1" fill="#331975" d="M 675.5,210.5 C 682.313,209.509 689.313,209.175 696.5,209.5C 696.5,205.833 696.5,202.167 696.5,198.5C 684.5,198.5 672.5,198.5 660.5,198.5C 660.5,217.833 660.5,237.167 660.5,256.5C 671.505,256.667 682.505,256.5 693.5,256C 694.416,255.626 695.25,255.126 696,254.5C 696.498,251.518 696.665,248.518 696.5,245.5C 689.313,245.825 682.313,245.491 675.5,244.5C 682.833,244.5 690.167,244.5 697.5,244.5C 697.5,248.833 697.5,253.167 697.5,257.5C 684.833,257.5 672.167,257.5 659.5,257.5C 659.5,237.5 659.5,217.5 659.5,197.5C 672.167,197.5 684.833,197.5 697.5,197.5C 697.5,201.833 697.5,206.167 697.5,210.5C 690.167,210.5 682.833,210.5 675.5,210.5 Z"/></g>
</svg>
